<svg width="38" height="69" viewBox="0 0 38 69" fill="none" xmlns="http://www.w3.org/2000/svg">
<path d="M19.1885 0.566709L4.72194 14.9676L19.1228 29.4341L33.5894 15.0333L19.1885 0.566709ZM17.2677 67.7639C18.2418 68.7424 19.8247 68.746 20.8033 67.7719L36.7494 51.8983C37.7279 50.9242 37.7315 49.3413 36.7574 48.3628C35.7833 47.3842 34.2004 47.3806 33.2219 48.3547L19.0476 62.4646L4.93768 48.2903C3.9636 47.3118 2.38069 47.3082 1.40216 48.2822C0.423628 49.2563 0.420024 50.8392 1.39411 51.8178L17.2677 67.7639ZM16.6557 14.9947L16.5395 65.9944L21.5395 66.0058L21.6557 15.0061L16.6557 14.9947Z" fill="#472B33"/>
</svg>
