<svg id="visual" viewBox="0 0 960 540" width="960" height="540" xmlns="http://www.w3.org/2000/svg" xmlns:xlink="http://www.w3.org/1999/xlink" version="1.1"><path d="M0 116L11.5 107C23 98 46 80 68.8 76.7C91.7 73.3 114.3 84.7 137.2 96.7C160 108.7 183 121.3 205.8 127.2C228.7 133 251.3 132 274.2 124.5C297 117 320 103 342.8 94.3C365.7 85.7 388.3 82.3 411.2 83.8C434 85.3 457 91.7 480 89C503 86.3 526 74.7 548.8 75C571.7 75.3 594.3 87.7 617.2 95.3C640 103 663 106 685.8 98.8C708.7 91.7 731.3 74.3 754.2 70.3C777 66.3 800 75.7 822.8 84.2C845.7 92.7 868.3 100.3 891.2 96.2C914 92 937 76 948.5 68L960 60L960 0L948.5 0C937 0 914 0 891.2 0C868.3 0 845.7 0 822.8 0C800 0 777 0 754.2 0C731.3 0 708.7 0 685.8 0C663 0 640 0 617.2 0C594.3 0 571.7 0 548.8 0C526 0 503 0 480 0C457 0 434 0 411.2 0C388.3 0 365.7 0 342.8 0C320 0 297 0 274.2 0C251.3 0 228.7 0 205.8 0C183 0 160 0 137.2 0C114.3 0 91.7 0 68.8 0C46 0 23 0 11.5 0L0 0Z" fill="#9b3451"></path><path d="M0 41L11.5 44.3C23 47.7 46 54.3 68.8 63.3C91.7 72.3 114.3 83.7 137.2 86C160 88.3 183 81.7 205.8 80.5C228.7 79.3 251.3 83.7 274.2 88.5C297 93.3 320 98.7 342.8 93.3C365.7 88 388.3 72 411.2 62.8C434 53.7 457 51.3 480 60.5C503 69.7 526 90.3 548.8 100.5C571.7 110.7 594.3 110.3 617.2 109.2C640 108 663 106 685.8 100.8C708.7 95.7 731.3 87.3 754.2 83.3C777 79.3 800 79.7 822.8 72.7C845.7 65.7 868.3 51.3 891.2 46.8C914 42.3 937 47.7 948.5 50.3L960 53L960 0L948.5 0C937 0 914 0 891.2 0C868.3 0 845.7 0 822.8 0C800 0 777 0 754.2 0C731.3 0 708.7 0 685.8 0C663 0 640 0 617.2 0C594.3 0 571.7 0 548.8 0C526 0 503 0 480 0C457 0 434 0 411.2 0C388.3 0 365.7 0 342.8 0C320 0 297 0 274.2 0C251.3 0 228.7 0 205.8 0C183 0 160 0 137.2 0C114.3 0 91.7 0 68.8 0C46 0 23 0 11.5 0L0 0Z" fill="#a33d5a"></path><path d="M0 69L11.5 67C23 65 46 61 68.8 53.2C91.7 45.3 114.3 33.7 137.2 31.7C160 29.7 183 37.3 205.8 46.7C228.7 56 251.3 67 274.2 68.5C297 70 320 62 342.8 57C365.7 52 388.3 50 411.2 52C434 54 457 60 480 62C503 64 526 62 548.8 59.7C571.7 57.3 594.3 54.7 617.2 51.3C640 48 663 44 685.8 47.5C708.7 51 731.3 62 754.2 68C777 74 800 75 822.8 73.8C845.7 72.7 868.3 69.3 891.2 61C914 52.7 937 39.3 948.5 32.7L960 26L960 0L948.5 0C937 0 914 0 891.2 0C868.3 0 845.7 0 822.8 0C800 0 777 0 754.2 0C731.3 0 708.7 0 685.8 0C663 0 640 0 617.2 0C594.3 0 571.7 0 548.8 0C526 0 503 0 480 0C457 0 434 0 411.2 0C388.3 0 365.7 0 342.8 0C320 0 297 0 274.2 0C251.3 0 228.7 0 205.8 0C183 0 160 0 137.2 0C114.3 0 91.7 0 68.8 0C46 0 23 0 11.5 0L0 0Z" fill="#ab4663"></path><path d="M0 37L11.5 34.8C23 32.7 46 28.3 68.8 27C91.7 25.7 114.3 27.3 137.2 26.3C160 25.3 183 21.7 205.8 19.2C228.7 16.7 251.3 15.3 274.2 19C297 22.7 320 31.3 342.8 34.3C365.7 37.3 388.3 34.7 411.2 34.3C434 34 457 36 480 38.2C503 40.3 526 42.7 548.8 41.2C571.7 39.7 594.3 34.3 617.2 33.8C640 33.3 663 37.7 685.8 37.3C708.7 37 731.3 32 754.2 33.8C777 35.7 800 44.3 822.8 46.8C845.7 49.3 868.3 45.7 891.2 41.7C914 37.7 937 33.3 948.5 31.2L960 29L960 0L948.5 0C937 0 914 0 891.2 0C868.3 0 845.7 0 822.8 0C800 0 777 0 754.2 0C731.3 0 708.7 0 685.8 0C663 0 640 0 617.2 0C594.3 0 571.7 0 548.8 0C526 0 503 0 480 0C457 0 434 0 411.2 0C388.3 0 365.7 0 342.8 0C320 0 297 0 274.2 0C251.3 0 228.7 0 205.8 0C183 0 160 0 137.2 0C114.3 0 91.7 0 68.8 0C46 0 23 0 11.5 0L0 0Z" fill="#b34f6c"></path></svg>