<svg id="visual" viewBox="0 0 900 300" width="900" height="300" xmlns="http://www.w3.org/2000/svg">
    <path
        d="M0 161L11.5 165.3C23 169.7 46 178.3 69 179C92 179.7 115 172.3 138.2 173.5C161.3 174.7 184.7 184.3 207.8 181.5C231 178.7 254 163.3 277 162.2C300 161 323 174 346 180.3C369 186.7 392 186.3 415.2 191.7C438.3 197 461.7 208 484.8 207.7C508 207.3 531 195.7 554 191.5C577 187.3 600 190.7 623 193.8C646 197 669 200 692.2 195.3C715.3 190.7 738.7 178.3 761.8 169C785 159.7 808 153.3 831 153C854 152.7 877 158.3 888.5 161.2L900 164L900 301L888.5 301C877 301 854 301 831 301C808 301 785 301 761.8 301C738.7 301 715.3 301 692.2 301C669 301 646 301 623 301C600 301 577 301 554 301C531 301 508 301 484.8 301C461.7 301 438.3 301 415.2 301C392 301 369 301 346 301C323 301 300 301 277 301C254 301 231 301 207.8 301C184.7 301 161.3 301 138.2 301C115 301 92 301 69 301C46 301 23 301 11.5 301L0 301Z"
        fill="#9b3451"></path>
    <path
        d="M0 231L11.5 218.7C23 206.3 46 181.7 69 181C92 180.3 115 203.7 138.2 204.8C161.3 206 184.7 185 207.8 181C231 177 254 190 277 197C300 204 323 205 346 206.7C369 208.3 392 210.7 415.2 205.2C438.3 199.7 461.7 186.3 484.8 178.5C508 170.7 531 168.3 554 175C577 181.7 600 197.3 623 202.2C646 207 669 201 692.2 192.3C715.3 183.7 738.7 172.3 761.8 172.2C785 172 808 183 831 188.8C854 194.7 877 195.3 888.5 195.7L900 196L900 301L888.5 301C877 301 854 301 831 301C808 301 785 301 761.8 301C738.7 301 715.3 301 692.2 301C669 301 646 301 623 301C600 301 577 301 554 301C531 301 508 301 484.8 301C461.7 301 438.3 301 415.2 301C392 301 369 301 346 301C323 301 300 301 277 301C254 301 231 301 207.8 301C184.7 301 161.3 301 138.2 301C115 301 92 301 69 301C46 301 23 301 11.5 301L0 301Z"
        fill="#a03a56"></path>
    <path
        d="M0 227L11.5 229.8C23 232.7 46 238.3 69 234.8C92 231.3 115 218.7 138.2 212.7C161.3 206.7 184.7 207.3 207.8 202.8C231 198.3 254 188.7 277 190.8C300 193 323 207 346 215.2C369 223.3 392 225.7 415.2 221.2C438.3 216.7 461.7 205.3 484.8 203.8C508 202.3 531 210.7 554 215C577 219.3 600 219.7 623 214.7C646 209.7 669 199.3 692.2 195.7C715.3 192 738.7 195 761.8 198.3C785 201.7 808 205.3 831 205.8C854 206.3 877 203.7 888.5 202.3L900 201L900 301L888.5 301C877 301 854 301 831 301C808 301 785 301 761.8 301C738.7 301 715.3 301 692.2 301C669 301 646 301 623 301C600 301 577 301 554 301C531 301 508 301 484.8 301C461.7 301 438.3 301 415.2 301C392 301 369 301 346 301C323 301 300 301 277 301C254 301 231 301 207.8 301C184.7 301 161.3 301 138.2 301C115 301 92 301 69 301C46 301 23 301 11.5 301L0 301Z"
        fill="#a53f5b"></path>
    <path
        d="M0 248L11.5 244.8C23 241.7 46 235.3 69 227.3C92 219.3 115 209.7 138.2 205.3C161.3 201 184.7 202 207.8 211.5C231 221 254 239 277 246.8C300 254.7 323 252.3 346 248.2C369 244 392 238 415.2 230C438.3 222 461.7 212 484.8 211.8C508 211.7 531 221.3 554 222C577 222.7 600 214.3 623 218.8C646 223.3 669 240.7 692.2 243.7C715.3 246.7 738.7 235.3 761.8 229.3C785 223.3 808 222.7 831 223.2C854 223.7 877 225.3 888.5 226.2L900 227L900 301L888.5 301C877 301 854 301 831 301C808 301 785 301 761.8 301C738.7 301 715.3 301 692.2 301C669 301 646 301 623 301C600 301 577 301 554 301C531 301 508 301 484.8 301C461.7 301 438.3 301 415.2 301C392 301 369 301 346 301C323 301 300 301 277 301C254 301 231 301 207.8 301C184.7 301 161.3 301 138.2 301C115 301 92 301 69 301C46 301 23 301 11.5 301L0 301Z"
        fill="#a94561"></path>
    <path
        d="M0 230L11.5 232.5C23 235 46 240 69 244.3C92 248.7 115 252.3 138.2 254.7C161.3 257 184.7 258 207.8 259.5C231 261 254 263 277 258.5C300 254 323 243 346 239.2C369 235.3 392 238.7 415.2 245.3C438.3 252 461.7 262 484.8 261.8C508 261.7 531 251.3 554 244.8C577 238.3 600 235.7 623 238.3C646 241 669 249 692.2 253.8C715.3 258.7 738.7 260.3 761.8 260.2C785 260 808 258 831 256.7C854 255.3 877 254.7 888.5 254.3L900 254L900 301L888.5 301C877 301 854 301 831 301C808 301 785 301 761.8 301C738.7 301 715.3 301 692.2 301C669 301 646 301 623 301C600 301 577 301 554 301C531 301 508 301 484.8 301C461.7 301 438.3 301 415.2 301C392 301 369 301 346 301C323 301 300 301 277 301C254 301 231 301 207.8 301C184.7 301 161.3 301 138.2 301C115 301 92 301 69 301C46 301 23 301 11.5 301L0 301Z"
        fill="#ae4a66"></path>
    <path 
        d="M0 262L11.5 262C23 262 46 262 69 265.2C92 268.3 115 274.7 138.2 274.5C161.3 274.3 184.7 267.7 207.8 264.8C231 262 254 263 277 264C300 265 323 266 346 264C369 262 392 257 415.2 256.5C438.3 256 461.7 260 484.8 264.7C508 269.3 531 274.7 554 276C577 277.3 600 274.7 623 273.5C646 272.3 669 272.7 692.2 269.3C715.3 266 738.7 259 761.8 261.2C785 263.3 808 274.7 831 275.8C854 277 877 268 888.5 263.5L900 259L900 301L888.5 301C877 301 854 301 831 301C808 301 785 301 761.8 301C738.7 301 715.3 301 692.2 301C669 301 646 301 623 301C600 301 577 301 554 301C531 301 508 301 484.8 301C461.7 301 438.3 301 415.2 301C392 301 369 301 346 301C323 301 300 301 277 301C254 301 231 301 207.8 301C184.7 301 161.3 301 138.2 301C115 301 92 301 69 301C46 301 23 301 11.5 301L0 301Z"
        fill="#b34f6c"></path>
</svg>