<svg id="visual" viewBox="0 0 900 300" width="900" height="300" xmlns="http://www.w3.org/2000/svg" xmlns:xlink="http://www.w3.org/1999/xlink" version="1.1"><path d="M0 122L11.5 119.3C23 116.7 46 111.3 69 107C92 102.7 115 99.3 138.2 98.2C161.3 97 184.7 98 207.8 107C231 116 254 133 277 134.5C300 136 323 122 346 115.7C369 109.3 392 110.7 415.2 108.3C438.3 106 461.7 100 484.8 100.7C508 101.3 531 108.7 554 112.7C577 116.7 600 117.3 623 125.5C646 133.7 669 149.3 692.2 146.2C715.3 143 738.7 121 761.8 109.3C785 97.7 808 96.3 831 98.2C854 100 877 105 888.5 107.5L900 110L900 0L888.5 0C877 0 854 0 831 0C808 0 785 0 761.8 0C738.7 0 715.3 0 692.2 0C669 0 646 0 623 0C600 0 577 0 554 0C531 0 508 0 484.8 0C461.7 0 438.3 0 415.2 0C392 0 369 0 346 0C323 0 300 0 277 0C254 0 231 0 207.8 0C184.7 0 161.3 0 138.2 0C115 0 92 0 69 0C46 0 23 0 11.5 0L0 0Z" fill="#9b3451"></path><path d="M0 114L11.5 109.3C23 104.7 46 95.3 69 100.5C92 105.7 115 125.3 138.2 133.8C161.3 142.3 184.7 139.7 207.8 134.3C231 129 254 121 277 113C300 105 323 97 346 92.2C369 87.3 392 85.7 415.2 83C438.3 80.3 461.7 76.7 484.8 83.3C508 90 531 107 554 113.8C577 120.7 600 117.3 623 112.2C646 107 669 100 692.2 92.7C715.3 85.3 738.7 77.7 761.8 84.7C785 91.7 808 113.3 831 120.8C854 128.3 877 121.7 888.5 118.3L900 115L900 0L888.5 0C877 0 854 0 831 0C808 0 785 0 761.8 0C738.7 0 715.3 0 692.2 0C669 0 646 0 623 0C600 0 577 0 554 0C531 0 508 0 484.8 0C461.7 0 438.3 0 415.2 0C392 0 369 0 346 0C323 0 300 0 277 0C254 0 231 0 207.8 0C184.7 0 161.3 0 138.2 0C115 0 92 0 69 0C46 0 23 0 11.5 0L0 0Z" fill="#a03a56"></path><path d="M0 108L11.5 108.8C23 109.7 46 111.3 69 106.2C92 101 115 89 138.2 86.8C161.3 84.7 184.7 92.3 207.8 96.5C231 100.7 254 101.3 277 99.8C300 98.3 323 94.7 346 98C369 101.3 392 111.7 415.2 105C438.3 98.3 461.7 74.7 484.8 74.5C508 74.3 531 97.7 554 105.3C577 113 600 105 623 104.2C646 103.3 669 109.7 692.2 112.2C715.3 114.7 738.7 113.3 761.8 113.2C785 113 808 114 831 110.8C854 107.7 877 100.3 888.5 96.7L900 93L900 0L888.5 0C877 0 854 0 831 0C808 0 785 0 761.8 0C738.7 0 715.3 0 692.2 0C669 0 646 0 623 0C600 0 577 0 554 0C531 0 508 0 484.8 0C461.7 0 438.3 0 415.2 0C392 0 369 0 346 0C323 0 300 0 277 0C254 0 231 0 207.8 0C184.7 0 161.3 0 138.2 0C115 0 92 0 69 0C46 0 23 0 11.5 0L0 0Z" fill="#a53f5b"></path><path d="M0 77L11.5 70.7C23 64.3 46 51.7 69 48C92 44.3 115 49.7 138.2 53.5C161.3 57.3 184.7 59.7 207.8 65.5C231 71.3 254 80.7 277 86C300 91.3 323 92.7 346 92.3C369 92 392 90 415.2 84C438.3 78 461.7 68 484.8 67.2C508 66.3 531 74.7 554 81.2C577 87.7 600 92.3 623 85.8C646 79.3 669 61.7 692.2 57.3C715.3 53 738.7 62 761.8 68.7C785 75.3 808 79.7 831 82.8C854 86 877 88 888.5 89L900 90L900 0L888.5 0C877 0 854 0 831 0C808 0 785 0 761.8 0C738.7 0 715.3 0 692.2 0C669 0 646 0 623 0C600 0 577 0 554 0C531 0 508 0 484.8 0C461.7 0 438.3 0 415.2 0C392 0 369 0 346 0C323 0 300 0 277 0C254 0 231 0 207.8 0C184.7 0 161.3 0 138.2 0C115 0 92 0 69 0C46 0 23 0 11.5 0L0 0Z" fill="#a94561"></path><path d="M0 55L11.5 57.2C23 59.3 46 63.7 69 59.3C92 55 115 42 138.2 35.3C161.3 28.7 184.7 28.3 207.8 30.7C231 33 254 38 277 38.2C300 38.3 323 33.7 346 33.3C369 33 392 37 415.2 43C438.3 49 461.7 57 484.8 55.3C508 53.7 531 42.3 554 36.7C577 31 600 31 623 33.7C646 36.3 669 41.7 692.2 42C715.3 42.3 738.7 37.7 761.8 35.2C785 32.7 808 32.3 831 32.5C854 32.7 877 33.3 888.5 33.7L900 34L900 0L888.5 0C877 0 854 0 831 0C808 0 785 0 761.8 0C738.7 0 715.3 0 692.2 0C669 0 646 0 623 0C600 0 577 0 554 0C531 0 508 0 484.8 0C461.7 0 438.3 0 415.2 0C392 0 369 0 346 0C323 0 300 0 277 0C254 0 231 0 207.8 0C184.7 0 161.3 0 138.2 0C115 0 92 0 69 0C46 0 23 0 11.5 0L0 0Z" fill="#ae4a66"></path><path d="M0 31L11.5 31.3C23 31.7 46 32.3 69 29.8C92 27.3 115 21.7 138.2 18.3C161.3 15 184.7 14 207.8 18.2C231 22.3 254 31.7 277 37C300 42.3 323 43.7 346 39.8C369 36 392 27 415.2 26C438.3 25 461.7 32 484.8 32.2C508 32.3 531 25.7 554 25.3C577 25 600 31 623 32.3C646 33.7 669 30.3 692.2 27.5C715.3 24.7 738.7 22.3 761.8 24.5C785 26.7 808 33.3 831 32.5C854 31.7 877 23.3 888.5 19.2L900 15L900 0L888.5 0C877 0 854 0 831 0C808 0 785 0 761.8 0C738.7 0 715.3 0 692.2 0C669 0 646 0 623 0C600 0 577 0 554 0C531 0 508 0 484.8 0C461.7 0 438.3 0 415.2 0C392 0 369 0 346 0C323 0 300 0 277 0C254 0 231 0 207.8 0C184.7 0 161.3 0 138.2 0C115 0 92 0 69 0C46 0 23 0 11.5 0L0 0Z" fill="#b34f6c"></path></svg>