<svg width="352" height="437" viewBox="0 0 352 437" fill="none" xmlns="http://www.w3.org/2000/svg">
<path d="M131.528 28.5297C134.797 33.6503 141.599 35.1512 146.719 31.8821L176 13.1887L205.281 31.8821C210.401 35.1512 217.203 33.6503 220.472 28.5297L307.528 84.1084C304.259 89.229 305.76 96.0302 310.881 99.2993L341 118.528V154.2C341 160.275 345.925 165.2 352 165.2V268.3C345.925 268.3 341 273.225 341 279.3V315.051L310.778 334.822C305.694 338.148 304.269 344.966 307.595 350.05L220.405 407.089C217.079 402.005 210.262 400.579 205.178 403.905L176 422.993L146.822 403.905C141.738 400.579 134.921 402.005 131.595 407.089L44.4052 350.05C47.731 344.966 46.3059 338.148 41.222 334.822L11 315.051V279.3C11 273.225 6.07513 268.3 0 268.3V165.2C6.07513 165.2 11 160.275 11 154.2V118.528L41.1192 99.2993C46.2398 96.0302 47.7407 89.229 44.4716 84.1084L131.528 28.5297Z" stroke="#472B33" stroke-width="22" stroke-miterlimit="1" stroke-linecap="round" stroke-dasharray="60 90"/>
</svg>
